<?xml version="1.0" standalone="no"?>
<!DOCTYPE svg PUBLIC "-//W3C//DTD SVG 20010904//EN"
 "http://www.w3.org/TR/2001/REC-SVG-20010904/DTD/svg10.dtd">
<svg version="1.0" xmlns="http://www.w3.org/2000/svg"
 width="346.000000pt" height="346.000000pt" viewBox="0 0 346.000000 346.000000"
 preserveAspectRatio="xMidYMid meet">
<metadata>
Created by potrace 1.14, written by Peter Selinger 2001-2017
</metadata>
<g transform="translate(0.000000,346.000000) scale(0.100000,-0.100000)"
fill="#000000" stroke="none">
<path d="M1540 3454 c-14 -2 -59 -9 -100 -15 -268 -39 -545 -159 -780 -339
-86 -66 -255 -237 -322 -325 -151 -199 -261 -443 -314 -695 -21 -102 -24 -140
-24 -347 0 -193 3 -250 21 -339 115 -600 553 -1104 1131 -1303 220 -75 290
-86 568 -86 272 0 324 7 525 71 142 45 366 156 480 238 299 215 522 516 636
856 73 219 83 284 83 555 1 214 -2 251 -22 345 -50 230 -136 434 -257 615
-288 429 -727 701 -1235 764 -78 10 -333 13 -390 5z m306 -255 c32 -6 68 -16
79 -22 11 -6 23 -10 26 -10 4 1 35 -15 70 -36 76 -46 108 -97 116 -189 7 -78
-2 -125 -32 -161 -32 -37 -31 -50 2 -48 65 5 70 -118 7 -181 -27 -27 -34 -42
-34 -72 0 -21 -5 -51 -10 -66 -14 -37 -119 -156 -131 -148 -5 3 -9 -2 -9 -10
0 -9 9 -16 20 -16 51 0 130 -108 130 -178 0 -18 15 -26 98 -51 108 -34 153
-58 177 -95 9 -14 32 -105 51 -203 53 -274 52 -257 16 -292 l-30 -31 -677 0
-677 0 -29 29 c-16 16 -29 37 -29 46 0 21 56 308 75 389 22 91 50 112 206 160
l86 26 7 41 c4 23 13 54 21 69 15 29 85 90 104 90 24 0 9 28 -40 75 -62 61
-89 111 -89 165 0 33 -6 46 -32 69 -29 26 -33 35 -36 99 -4 63 -2 71 16 81 11
6 28 8 36 5 13 -5 16 2 16 37 0 35 -5 47 -26 64 -23 18 -27 31 -31 91 -4 54
-1 78 11 103 19 35 70 71 102 71 12 0 33 9 47 20 91 72 254 105 393 79z m-899
-1958 c56 -26 77 -67 78 -151 0 -121 -45 -160 -192 -168 l-93 -5 0 172 0 171
83 0 c59 0 94 -6 124 -19z m379 3 c66 -32 97 -163 56 -244 -54 -108 -215 -108
-269 0 -47 92 -15 218 62 250 34 14 115 11 151 -6z m374 1 c44 -23 55 -50 27
-68 -21 -14 -25 -13 -44 9 -21 24 -70 32 -108 18 -26 -10 -45 -60 -45 -119 0
-49 4 -60 29 -86 40 -39 82 -39 123 1 21 21 36 29 49 25 27 -9 24 -29 -9 -66
-24 -27 -37 -33 -84 -37 -111 -9 -172 50 -172 167 0 78 19 122 67 151 39 24
125 27 167 5z m340 -10 c0 -23 -3 -25 -50 -25 l-50 0 0 -145 0 -145 -30 0 -30
0 0 145 0 145 -50 0 c-47 0 -50 2 -50 25 l0 25 130 0 130 0 0 -25z m286 6 c42
-26 64 -77 64 -151 0 -106 -45 -161 -138 -167 -109 -8 -166 50 -166 166 0 78
20 123 67 151 43 26 131 27 173 1z m360 -14 c34 -39 32 -82 -6 -117 -25 -23
-27 -30 -16 -40 13 -10 56 -120 56 -142 0 -4 -13 -8 -28 -8 -27 0 -30 5 -47
61 -20 66 -47 93 -87 87 -21 -3 -23 -8 -26 -75 l-3 -73 -29 0 -30 0 0 171 0
171 96 -4 c91 -3 97 -5 120 -31z m-1418 -492 c57 -17 69 -138 17 -182 -30 -26
-73 -30 -114 -8 -35 17 -41 32 -41 94 0 89 48 122 138 96z m229 -9 c12 -12
-11 -26 -30 -20 -31 10 -59 7 -68 -8 -11 -18 6 -35 43 -42 64 -13 88 -66 48
-106 -24 -24 -70 -26 -111 -4 -24 12 -28 18 -19 29 10 12 15 12 35 -1 35 -23
70 -15 70 16 0 19 -7 26 -36 35 -62 17 -85 54 -60 93 16 26 104 32 128 8z
m-557 -26 l0 -40 50 0 50 0 0 40 c0 29 4 40 15 40 12 0 15 -18 15 -105 0 -87
-3 -105 -15 -105 -11 0 -15 12 -15 50 l0 50 -50 0 -50 0 0 -50 c0 -43 -3 -50
-20 -50 -19 0 -20 7 -20 105 0 98 1 105 20 105 17 0 20 -7 20 -40z m744 27
c22 -16 24 -73 4 -93 -8 -9 -34 -18 -57 -21 -40 -6 -41 -7 -41 -44 0 -28 -4
-39 -15 -39 -12 0 -15 18 -15 105 l0 105 53 0 c29 0 61 -6 71 -13z m106 -92
c0 -98 -1 -105 -20 -105 -19 0 -20 7 -20 105 0 98 1 105 20 105 19 0 20 -7 20
-105z m200 90 c0 -10 -10 -15 -30 -15 l-30 0 0 -90 c0 -83 -1 -90 -20 -90 -19
0 -20 7 -20 90 l0 90 -30 0 c-20 0 -30 5 -30 15 0 12 16 15 80 15 64 0 80 -3
80 -15z m171 -73 c16 -46 31 -92 34 -103 5 -14 2 -19 -13 -19 -13 0 -22 9 -26
26 -6 23 -10 25 -54 22 -40 -3 -47 -6 -50 -25 -2 -15 -10 -23 -23 -23 -10 0
-19 1 -19 3 0 3 55 169 65 195 3 8 16 12 32 10 23 -3 29 -12 54 -86z m119 -2
l0 -90 45 0 c33 0 45 -4 45 -15 0 -12 -14 -15 -65 -15 l-65 0 0 105 c0 98 1
105 20 105 19 0 20 -7 20 -90z m255 80 c12 -19 -5 -30 -31 -20 -30 12 -67 -4
-62 -27 2 -8 26 -22 53 -31 47 -16 50 -19 53 -54 3 -30 -1 -40 -23 -54 -45
-29 -138 -1 -115 36 8 12 11 12 28 -3 23 -21 55 -22 72 -2 20 24 5 41 -44 54
-57 14 -77 48 -51 87 13 20 24 24 65 24 27 0 52 -4 55 -10z"/>
<path d="M2020 3086 c0 -2 8 -10 18 -17 15 -13 16 -12 3 4 -13 16 -21 21 -21
13z"/>
<path d="M1404 2973 c22 -27 17 -70 -14 -113 -19 -27 -21 -44 -20 -219 0 -141
3 -199 14 -223 16 -39 165 -192 207 -214 45 -23 204 -24 244 -1 55 32 68 42
122 97 93 95 101 115 103 260 4 256 2 288 -20 310 -18 18 -29 19 -153 13 -150
-7 -233 6 -370 59 -43 17 -81 27 -84 24 -4 -3 -16 2 -27 11 -21 18 -21 18 -2
-4z"/>
<path d="M1300 2653 c4 -40 12 -69 22 -80 10 -9 20 -14 23 -12 3 3 5 33 6 67
2 65 -10 92 -39 89 -15 -1 -16 -10 -12 -64z"/>
<path d="M2092 2708 c-14 -14 -17 -148 -4 -148 23 0 43 41 44 88 0 68 -13 87
-40 60z"/>
<path d="M1475 2218 c-16 -5 -42 -26 -58 -46 -28 -37 -55 -108 -44 -118 3 -4
27 1 53 10 37 12 50 13 62 4 11 -10 18 -7 33 12 15 19 18 38 17 85 -3 66 -10
71 -63 53z"/>
<path d="M1897 2223 c-4 -3 -7 -31 -7 -62 0 -66 27 -114 53 -93 11 10 23 9 57
-3 23 -8 46 -15 51 -15 16 0 10 42 -12 87 -30 61 -116 113 -142 86z"/>
<path d="M1560 2150 c0 -22 -7 -55 -16 -71 -8 -17 -14 -32 -12 -33 2 -1 38
-24 80 -50 43 -26 85 -55 94 -64 15 -14 17 -14 25 0 5 9 45 38 89 64 44 26 80
52 80 58 -1 6 -7 22 -15 36 -8 14 -14 42 -15 63 0 35 -2 38 -22 30 -13 -4 -72
-8 -133 -8 -60 0 -120 4 -132 8 -22 8 -23 6 -23 -33z"/>
<path d="M1955 2033 c-3 -15 -29 -77 -56 -137 -27 -61 -49 -114 -49 -118 0 -5
-20 -54 -45 -110 -62 -140 -62 -141 -69 -160 -12 -38 -33 -14 -78 90 -92 213
-178 420 -178 430 0 20 -22 24 -66 12 -43 -12 -44 -13 -44 -57 0 -36 4 -45 23
-52 46 -18 64 -53 97 -188 35 -147 34 -156 -24 -187 -39 -21 -69 -15 -64 11 2
12 13 18 33 19 52 1 55 3 55 37 0 54 -47 237 -66 258 -10 11 -29 25 -43 32
-21 10 -27 20 -29 54 l-3 42 -39 -2 c-21 -1 -36 -4 -34 -6 2 -3 -30 -15 -71
-28 -109 -34 -118 -49 -159 -264 -52 -264 -50 -244 -24 -273 l23 -26 667 -1
c454 0 674 4 688 11 35 19 34 55 -8 268 -40 202 -42 208 -76 239 -32 29 -113
61 -204 79 l-32 7 0 -77 c0 -72 1 -76 25 -82 42 -10 75 -59 75 -111 0 -85 -87
-131 -169 -89 -76 40 -65 161 19 196 30 12 30 12 30 95 l0 83 -47 16 c-26 9
-48 16 -49 16 -1 0 -5 -12 -9 -27z m-600 -113 c3 -5 -2 -10 -13 -10 -46 0 -76
-70 -111 -257 -10 -52 11 -78 53 -67 30 7 46 -17 26 -41 -10 -13 -17 -11 -52
8 -61 34 -62 41 -28 179 36 145 47 175 69 188 21 12 48 12 56 0z"/>
<path d="M1527 1963 c37 -96 35 -95 96 -69 28 13 52 27 54 32 2 8 -155 104
-170 104 -3 0 6 -30 20 -67z"/>
<path d="M1836 1982 c-44 -26 -79 -51 -78 -56 0 -5 25 -20 54 -32 l53 -23 26
57 c33 71 43 102 32 102 -4 -1 -44 -22 -87 -48z"/>
<path d="M1687 1898 c-52 -23 -55 -29 -30 -58 23 -27 93 -28 116 -2 23 26 21
35 -11 59 l-28 21 -47 -20z"/>
<path d="M1593 1863 c-19 -7 -16 -23 16 -94 l29 -64 11 43 c7 24 9 51 6 61 -8
25 -48 59 -62 54z"/>
<path d="M1795 1836 c-26 -34 -26 -43 -8 -110 6 -23 17 -11 33 37 6 20 15 37
19 37 4 0 8 13 9 29 3 43 -23 47 -53 7z"/>
<path d="M2009 1811 c-48 -48 -38 -116 22 -147 77 -39 158 40 124 122 -25 62
-97 74 -146 25z"/>
<path d="M1671 1753 c-22 -86 -21 -96 12 -167 l33 -69 33 72 c32 71 32 71 19
133 -14 62 -15 63 -51 66 -34 3 -36 1 -46 -35z"/>
<path d="M800 1097 c0 -72 4 -118 11 -122 21 -13 101 6 125 30 20 20 24 34 24
84 0 84 -25 112 -103 119 l-57 4 0 -115z"/>
<path d="M1186 1187 c-50 -50 -41 -173 14 -202 86 -44 155 28 137 143 -12 75
-101 109 -151 59z"/>
<path d="M2179 1191 c-18 -14 -23 -31 -27 -80 -5 -72 9 -114 44 -130 41 -18
74 -13 105 18 25 26 29 37 29 86 0 59 -19 109 -45 119 -32 12 -83 6 -106 -13z"/>
<path d="M2532 1163 c3 -47 3 -48 40 -51 51 -4 78 12 78 46 0 40 -17 52 -73
52 l-48 0 3 -47z"/>
<path d="M1181 697 c-28 -35 -21 -107 13 -129 20 -13 53 -8 69 10 19 21 22 83
7 113 -13 23 -71 26 -89 6z"/>
<path d="M1597 713 c-4 -3 -7 -21 -7 -40 0 -30 3 -33 28 -33 53 0 73 53 26 70
-30 12 -38 12 -47 3z"/>
<path d="M2091 678 c-25 -68 -25 -68 13 -68 l35 0 -16 45 c-8 25 -17 45 -19
45 -3 0 -8 -10 -13 -22z"/>
</g>
</svg>
